<mxfile host="app.diagrams.net" modified="2023-08-24T18:37:49.117Z" agent="Mozilla/5.0 (Windows NT 10.0; Win64; x64) AppleWebKit/537.36 (KHTML, like Gecko) Chrome/116.0.0.0 Safari/537.36" etag="MwX4JlYCTUAfB1sTHos8" version="21.6.9" type="device">
  <diagram name="Page-1" id="-IGkToAGBUo3LZPsKD9X">
    <mxGraphModel dx="989" dy="517" grid="0" gridSize="10" guides="0" tooltips="1" connect="1" arrows="1" fold="1" page="1" pageScale="1" pageWidth="827" pageHeight="1169" math="0" shadow="0">
      <root>
        <mxCell id="0" />
        <mxCell id="1" parent="0" />
        <mxCell id="b4Jdqjot7AkIIK2aGSFn-37" style="rounded=0;orthogonalLoop=1;jettySize=auto;html=1;exitX=0.99;exitY=0.385;exitDx=0;exitDy=0;entryX=0.1;entryY=0.75;entryDx=0;entryDy=0;entryPerimeter=0;exitPerimeter=0;endArrow=none;endFill=0;fillColor=#dae8fc;strokeColor=#6c8ebf;fontStyle=1" edge="1" parent="1" source="b4Jdqjot7AkIIK2aGSFn-32" target="b4Jdqjot7AkIIK2aGSFn-33">
          <mxGeometry relative="1" as="geometry" />
        </mxCell>
        <mxCell id="b4Jdqjot7AkIIK2aGSFn-38" style="rounded=0;orthogonalLoop=1;jettySize=auto;html=1;entryX=0.316;entryY=0.044;entryDx=0;entryDy=0;exitX=0.816;exitY=0.875;exitDx=0;exitDy=0;exitPerimeter=0;entryPerimeter=0;endArrow=none;endFill=0;fillColor=#dae8fc;strokeColor=#6c8ebf;fontStyle=1" edge="1" parent="1" source="b4Jdqjot7AkIIK2aGSFn-32" target="b4Jdqjot7AkIIK2aGSFn-36">
          <mxGeometry relative="1" as="geometry" />
        </mxCell>
        <mxCell id="b4Jdqjot7AkIIK2aGSFn-40" value="30 ml" style="edgeLabel;html=1;align=center;verticalAlign=middle;resizable=0;points=[];fontStyle=1" vertex="1" connectable="0" parent="b4Jdqjot7AkIIK2aGSFn-38">
          <mxGeometry x="-0.1458" y="1" relative="1" as="geometry">
            <mxPoint x="-4" y="-29" as="offset" />
          </mxGeometry>
        </mxCell>
        <mxCell id="b4Jdqjot7AkIIK2aGSFn-32" value="" style="ellipse;whiteSpace=wrap;html=1;aspect=fixed;fillColor=#dae8fc;strokeColor=#6c8ebf;fontStyle=1" vertex="1" parent="1">
          <mxGeometry x="180" y="390" width="20" height="20" as="geometry" />
        </mxCell>
        <mxCell id="b4Jdqjot7AkIIK2aGSFn-46" style="rounded=0;orthogonalLoop=1;jettySize=auto;html=1;exitX=1;exitY=1;exitDx=0;exitDy=0;entryX=0;entryY=0;entryDx=0;entryDy=0;endArrow=none;endFill=0;fillColor=#dae8fc;strokeColor=#6c8ebf;fontStyle=1" edge="1" parent="1" source="b4Jdqjot7AkIIK2aGSFn-33" target="b4Jdqjot7AkIIK2aGSFn-34">
          <mxGeometry relative="1" as="geometry" />
        </mxCell>
        <mxCell id="b4Jdqjot7AkIIK2aGSFn-33" value="" style="ellipse;whiteSpace=wrap;html=1;aspect=fixed;fillColor=#dae8fc;strokeColor=#6c8ebf;fontStyle=1" vertex="1" parent="1">
          <mxGeometry x="390" y="300" width="20" height="20" as="geometry" />
        </mxCell>
        <mxCell id="b4Jdqjot7AkIIK2aGSFn-47" style="edgeStyle=orthogonalEdgeStyle;rounded=0;orthogonalLoop=1;jettySize=auto;html=1;exitX=0.5;exitY=1;exitDx=0;exitDy=0;entryX=0.5;entryY=0;entryDx=0;entryDy=0;endArrow=none;endFill=0;fillColor=#dae8fc;strokeColor=#6c8ebf;fontStyle=1" edge="1" parent="1" source="b4Jdqjot7AkIIK2aGSFn-34" target="b4Jdqjot7AkIIK2aGSFn-35">
          <mxGeometry relative="1" as="geometry" />
        </mxCell>
        <mxCell id="b4Jdqjot7AkIIK2aGSFn-34" value="" style="ellipse;whiteSpace=wrap;html=1;aspect=fixed;fillColor=#dae8fc;strokeColor=#6c8ebf;fontStyle=1" vertex="1" parent="1">
          <mxGeometry x="510" y="380" width="20" height="20" as="geometry" />
        </mxCell>
        <mxCell id="b4Jdqjot7AkIIK2aGSFn-35" value="" style="ellipse;whiteSpace=wrap;html=1;aspect=fixed;fillColor=#dae8fc;strokeColor=#6c8ebf;fontStyle=1" vertex="1" parent="1">
          <mxGeometry x="510" y="575" width="20" height="20" as="geometry" />
        </mxCell>
        <mxCell id="b4Jdqjot7AkIIK2aGSFn-39" style="edgeStyle=orthogonalEdgeStyle;rounded=0;orthogonalLoop=1;jettySize=auto;html=1;exitX=1;exitY=0.5;exitDx=0;exitDy=0;entryX=0;entryY=0.5;entryDx=0;entryDy=0;endArrow=none;endFill=0;fillColor=#dae8fc;strokeColor=#6c8ebf;fontStyle=1" edge="1" parent="1" source="b4Jdqjot7AkIIK2aGSFn-36" target="b4Jdqjot7AkIIK2aGSFn-35">
          <mxGeometry relative="1" as="geometry" />
        </mxCell>
        <mxCell id="b4Jdqjot7AkIIK2aGSFn-41" value="45 ml" style="edgeLabel;html=1;align=center;verticalAlign=middle;resizable=0;points=[];fontStyle=1" vertex="1" connectable="0" parent="b4Jdqjot7AkIIK2aGSFn-39">
          <mxGeometry x="0.2034" y="1" relative="1" as="geometry">
            <mxPoint as="offset" />
          </mxGeometry>
        </mxCell>
        <mxCell id="b4Jdqjot7AkIIK2aGSFn-42" style="rounded=0;orthogonalLoop=1;jettySize=auto;html=1;exitX=0.663;exitY=0.039;exitDx=0;exitDy=0;entryX=0.232;entryY=0.935;entryDx=0;entryDy=0;exitPerimeter=0;entryPerimeter=0;endArrow=none;endFill=0;fillColor=#dae8fc;strokeColor=#6c8ebf;fontStyle=1" edge="1" parent="1">
          <mxGeometry relative="1" as="geometry">
            <mxPoint x="244.26" y="575.78" as="sourcePoint" />
            <mxPoint x="395.64" y="318.70000000000005" as="targetPoint" />
          </mxGeometry>
        </mxCell>
        <mxCell id="b4Jdqjot7AkIIK2aGSFn-43" value="50 ml" style="edgeLabel;html=1;align=center;verticalAlign=middle;resizable=0;points=[];fontStyle=1" vertex="1" connectable="0" parent="b4Jdqjot7AkIIK2aGSFn-42">
          <mxGeometry x="0.2273" y="-1" relative="1" as="geometry">
            <mxPoint as="offset" />
          </mxGeometry>
        </mxCell>
        <mxCell id="b4Jdqjot7AkIIK2aGSFn-44" style="rounded=0;orthogonalLoop=1;jettySize=auto;html=1;exitX=1;exitY=0;exitDx=0;exitDy=0;entryX=0;entryY=1;entryDx=0;entryDy=0;endArrow=none;endFill=0;fillColor=#dae8fc;strokeColor=#6c8ebf;fontStyle=1" edge="1" parent="1" source="b4Jdqjot7AkIIK2aGSFn-36" target="b4Jdqjot7AkIIK2aGSFn-34">
          <mxGeometry relative="1" as="geometry">
            <mxPoint x="440" y="440" as="targetPoint" />
          </mxGeometry>
        </mxCell>
        <mxCell id="b4Jdqjot7AkIIK2aGSFn-45" value="55 ml" style="edgeLabel;html=1;align=center;verticalAlign=middle;resizable=0;points=[];fontStyle=1" vertex="1" connectable="0" parent="b4Jdqjot7AkIIK2aGSFn-44">
          <mxGeometry x="0.141" y="-2" relative="1" as="geometry">
            <mxPoint as="offset" />
          </mxGeometry>
        </mxCell>
        <mxCell id="b4Jdqjot7AkIIK2aGSFn-36" value="" style="ellipse;whiteSpace=wrap;html=1;aspect=fixed;fillColor=#dae8fc;strokeColor=#6c8ebf;fontStyle=1" vertex="1" parent="1">
          <mxGeometry x="230" y="575" width="20" height="20" as="geometry" />
        </mxCell>
        <mxCell id="b4Jdqjot7AkIIK2aGSFn-53" value="" style="endArrow=none;html=1;rounded=0;fontStyle=1" edge="1" parent="1">
          <mxGeometry width="50" height="50" relative="1" as="geometry">
            <mxPoint x="212" y="473" as="sourcePoint" />
            <mxPoint x="318" y="450" as="targetPoint" />
          </mxGeometry>
        </mxCell>
        <mxCell id="b4Jdqjot7AkIIK2aGSFn-54" value="" style="endArrow=none;html=1;rounded=0;fontStyle=1" edge="1" parent="1">
          <mxGeometry width="50" height="50" relative="1" as="geometry">
            <mxPoint x="352" y="507" as="sourcePoint" />
            <mxPoint x="318" y="450" as="targetPoint" />
          </mxGeometry>
        </mxCell>
        <mxCell id="b4Jdqjot7AkIIK2aGSFn-55" value="" style="endArrow=none;html=1;rounded=0;fontStyle=1" edge="1" parent="1">
          <mxGeometry width="50" height="50" relative="1" as="geometry">
            <mxPoint x="357" y="585" as="sourcePoint" />
            <mxPoint x="352" y="507" as="targetPoint" />
          </mxGeometry>
        </mxCell>
        <mxCell id="b4Jdqjot7AkIIK2aGSFn-56" value="" style="endArrow=classic;html=1;rounded=0;fontStyle=1" edge="1" parent="1">
          <mxGeometry width="50" height="50" relative="1" as="geometry">
            <mxPoint x="363" y="448" as="sourcePoint" />
            <mxPoint x="337" y="482" as="targetPoint" />
          </mxGeometry>
        </mxCell>
        <mxCell id="b4Jdqjot7AkIIK2aGSFn-57" value="Breaking point" style="text;html=1;strokeColor=none;fillColor=none;align=center;verticalAlign=middle;whiteSpace=wrap;rounded=0;fontStyle=1" vertex="1" parent="1">
          <mxGeometry x="352" y="428" width="60" height="30" as="geometry" />
        </mxCell>
        <mxCell id="b4Jdqjot7AkIIK2aGSFn-58" value="&lt;font style=&quot;&quot;&gt;&lt;span style=&quot;font-size: 7px;&quot;&gt;P&lt;/span&gt;&lt;font style=&quot;font-size: 5px;&quot;&gt;2&lt;/font&gt;&lt;span style=&quot;font-size: 7px;&quot;&gt; = 100000&lt;/span&gt;&lt;/font&gt;" style="text;html=1;strokeColor=none;fillColor=none;align=center;verticalAlign=middle;whiteSpace=wrap;rounded=0;fontStyle=1" vertex="1" parent="1">
          <mxGeometry x="158" y="372" width="53" height="20" as="geometry" />
        </mxCell>
        <mxCell id="b4Jdqjot7AkIIK2aGSFn-59" value="&lt;font style=&quot;&quot;&gt;&lt;span style=&quot;font-size: 7px;&quot;&gt;P&lt;/span&gt;&lt;span style=&quot;font-size: 5px;&quot;&gt;3&lt;/span&gt;&lt;span style=&quot;font-size: 7px;&quot;&gt;&amp;nbsp;=&amp;nbsp; 200000&lt;/span&gt;&lt;/font&gt;" style="text;html=1;strokeColor=none;fillColor=none;align=center;verticalAlign=middle;whiteSpace=wrap;rounded=0;fontStyle=1" vertex="1" parent="1">
          <mxGeometry x="372" y="280" width="53" height="20" as="geometry" />
        </mxCell>
        <mxCell id="b4Jdqjot7AkIIK2aGSFn-60" value="&lt;font style=&quot;&quot;&gt;&lt;span style=&quot;font-size: 7px;&quot;&gt;P&lt;/span&gt;&lt;font style=&quot;font-size: 5px;&quot;&gt;4&lt;/font&gt;&lt;span style=&quot;font-size: 7px;&quot;&gt; =&amp;nbsp; 500000&lt;/span&gt;&lt;/font&gt;" style="text;html=1;strokeColor=none;fillColor=none;align=center;verticalAlign=middle;whiteSpace=wrap;rounded=0;fontStyle=1" vertex="1" parent="1">
          <mxGeometry x="518" y="360" width="53" height="20" as="geometry" />
        </mxCell>
        <mxCell id="b4Jdqjot7AkIIK2aGSFn-61" value="&lt;font style=&quot;&quot;&gt;&lt;span style=&quot;font-size: 7px;&quot;&gt;P&lt;/span&gt;&lt;span style=&quot;font-size: 5px;&quot;&gt;5&lt;/span&gt;&lt;span style=&quot;font-size: 7px;&quot;&gt;&amp;nbsp;=&amp;nbsp; 400000&lt;/span&gt;&lt;/font&gt;" style="text;html=1;strokeColor=none;fillColor=none;align=center;verticalAlign=middle;whiteSpace=wrap;rounded=0;fontStyle=1" vertex="1" parent="1">
          <mxGeometry x="497" y="593" width="53" height="20" as="geometry" />
        </mxCell>
        <mxCell id="b4Jdqjot7AkIIK2aGSFn-62" value="&lt;font style=&quot;&quot;&gt;&lt;span style=&quot;font-size: 7px;&quot;&gt;P&lt;/span&gt;&lt;span style=&quot;font-size: 5px;&quot;&gt;1&lt;/span&gt;&lt;span style=&quot;font-size: 7px;&quot;&gt;&amp;nbsp;=&amp;nbsp; 200000&lt;/span&gt;&lt;/font&gt;" style="text;html=1;strokeColor=none;fillColor=none;align=center;verticalAlign=middle;whiteSpace=wrap;rounded=0;fontStyle=1" vertex="1" parent="1">
          <mxGeometry x="205" y="594" width="53" height="20" as="geometry" />
        </mxCell>
      </root>
    </mxGraphModel>
  </diagram>
</mxfile>
